<?xml version="1.0" encoding="utf-8"?>
<!-- Generator: Adobe Illustrator 24.0.2, SVG Export Plug-In . SVG Version: 6.00 Build 0)  -->
<svg version="1.1" id="Layer_1" xmlns="http://www.w3.org/2000/svg" xmlns:xlink="http://www.w3.org/1999/xlink" x="0px" y="0px"
	 viewBox="0 0 512 512" style="enable-background:new 0 0 512 512;" width="20" xml:space="preserve">
<style type="text/css">
	.st0{fill:#007BBC;}
	.st1{fill:#FFFFFF;}
</style>
<g>
	<g>
		<g>
			<path class="st0" d="M255.9773,507.494c-138.8504,0-251.8105-112.9601-251.8105-251.8068
				c0-138.8476,112.9601-251.8077,251.8105-251.8077c138.8476,0,251.8077,112.9601,251.8077,251.8077
				C507.785,394.5339,394.8249,507.494,255.9773,507.494z"/>
		</g>
		<g>
			<g>
				<path class="st1" d="M398.335,274.8595v94.0225c0,2.3234-1.8835,4.2069-4.2069,4.2069h-48.5385
					c-2.3225,0-4.206-1.8835-4.206-4.2069v-87.4395c0-23.0114-8.2225-38.7263-28.843-38.7263
					c-15.7353,0-25.0835,10.5801-29.2118,20.8239c-1.499,3.6616-1.8853,8.7456-1.8853,13.8804v91.4579
					c0,2.3225-1.8835,4.206-4.2069,4.206h-48.5228c-2.3299,0-4.2171-1.8761-4.206-4.2069
					c0.1081-23.2841,0.5989-136.2663,0.1007-162.822c-0.0444-2.3521,1.8521-4.2568,4.2051-4.2568h48.4276
					c2.3225,0,4.206,1.8835,4.206,4.206v20.067c-0.1146,0.1913-0.2763,0.378-0.378,0.561h0.378v-0.561
					c7.5682-11.6457,21.066-28.295,51.3277-28.295C370.2433,197.7765,398.335,222.2574,398.335,274.8595L398.335,274.8595z
					 M140.2714,373.089h48.5219c2.3225,0,4.206-1.8835,4.206-4.2069V206.0046c0-2.3225-1.8835-4.206-4.206-4.206h-48.5219
					c-2.3234,0-4.206,1.8835-4.206,4.206V368.882C136.0654,371.2055,137.948,373.089,140.2714,373.089z"/>
			</g>
		</g>
	</g>
	<g>
		<circle class="st1" cx="162.8281" cy="149.5264" r="30.4844"/>
	</g>
</g>
</svg>
